<svg width="163" height="26" viewBox="0 0 163 26" xmlns="http://www.w3.org/2000/svg"><title>Logo</title><g fill="none" fill-rule="evenodd"><path d="M20.77 13.65c.925 1.007 2.452 1.787 3.804 1.787 1.502 0 2.404-.856 2.404-1.535 0-.804-.626-1.232-1.578-1.41l-1.477-.275c-3.404-.63-4.355-1.736-4.355-3.472 0-2.063 1.727-3.975 4.756-3.975 1.677 0 3.154.503 4.806 1.686l-1.477 1.836C26.377 7.21 25.25 6.934 24.4 6.934c-1.128 0-2.23.553-2.23 1.534 0 .73.577 1.107 1.578 1.283l2.63.504c2.152.403 3.203 1.435 3.203 3.245 0 1.785-1.45 4.1-5.13 4.1-2.054 0-3.806-.73-5.46-2.138l1.78-1.81M31.51 12.19h-1.704V9.727h1.703v-8.25h2.602v8.25h1.328l3.18-4.63h3.153l-4.106 5.738 4.306 6.44h-3.08L35.69 12.19h-1.578v5.083H31.51V12.19M69.11 13.483c-.703-1.084-1.682-1.84-3.162-1.84-2.284 0-3.94 1.765-3.94 3.958 0 2.194 1.656 3.96 3.94 3.96 1.43 0 2.46-.732 3.16-1.842l2.285 1.362c-1.08 1.715-3.137 2.95-5.445 2.95-4.24 0-6.7-3.202-6.7-6.43 0-3.227 2.46-6.43 6.7-6.43 2.584 0 4.266 1.236 5.445 2.95l-2.284 1.363M73 5.868h2.608v5.17h.05c.728-1.136 2.057-1.867 3.714-1.867 2.56 0 4.717 2.145 4.717 5.17v7.362h-2.61V14.92c0-2.218-1.154-3.126-2.886-3.126-1.68 0-2.986 1.084-2.986 3.076v6.832h-2.61V5.868M88.13 5.54c.8 0 1.454.656 1.454 1.463s-.653 1.462-1.455 1.462c-.805 0-1.457-.655-1.457-1.462 0-.807.652-1.462 1.456-1.462zM86.822 9.5h2.61V21.7h-2.61V9.5zM94.828 5.868v10.918c0 1.412.3 1.916 1.08 2.37l1.404.807-1.154 2.067c-2.685-1.285-3.94-2.22-3.94-4.765V5.868h2.61M107.5 20.215h-.05c-.83 1.11-2.335 1.815-3.99 1.815-3.99 0-6.3-3.277-6.3-6.43 0-3 2.485-6.43 6.425-6.43 1.806 0 3.186.783 3.864 1.816h.05V5.868h2.61v15.834h-2.61v-1.487zm-3.715-.656c2.058 0 3.814-1.766 3.814-3.96 0-2.192-1.757-3.958-3.815-3.958-2.108 0-3.863 1.766-3.863 3.96 0 2.192 1.755 3.957 3.863 3.957zM124.87 13.483c-.703-1.084-1.68-1.84-3.162-1.84-2.283 0-3.94 1.765-3.94 3.958 0 2.194 1.657 3.96 3.94 3.96 1.43 0 2.46-.732 3.162-1.842l2.282 1.362c-1.08 1.715-3.136 2.95-5.444 2.95-4.24 0-6.7-3.202-6.7-6.43 0-3.227 2.46-6.43 6.7-6.43 2.584 0 4.265 1.236 5.444 2.95l-2.282 1.363M138.193 20.215h-.05c-.83 1.11-2.334 1.815-3.99 1.815-3.99 0-6.298-3.277-6.298-6.43 0-3 2.484-6.43 6.423-6.43 1.807 0 3.187.783 3.865 1.816h.05V9.5h2.61V21.7h-2.61v-1.487zm-3.714-.656c2.056 0 3.813-1.766 3.813-3.96 0-2.192-1.757-3.958-3.814-3.958-2.108 0-3.865 1.766-3.865 3.96 0 2.192 1.757 3.957 3.864 3.957zM143.487 9.5h2.46v1.335h.05c.426-1.008 1.33-1.664 2.383-1.664.577 0 1.08.152 1.43.38l-.928 2.597c-.25-.202-.728-.353-.98-.353-.952 0-1.805.73-1.805 1.84v8.068h-2.61V9.5M161.954 19.055c-1.455 1.84-3.462 2.95-5.645 2.975-4.24 0-6.7-3.202-6.7-6.43 0-3.227 2.46-6.43 6.7-6.43 2.533 0 6.297 2.094 6.297 6.86v.48H152.52c.15 1.864 1.882 3.2 3.714 3.2 1.404 0 2.61-.68 3.512-1.89l2.208 1.235zm-2.41-4.715c-.55-1.866-1.93-2.85-3.587-2.85-1.656 0-3.01 1.035-3.437 2.85h7.025zM43.154 5.09h2.604v7.146c0 2.037 1.25 2.893 2.854 2.893 2.027 0 3.003-1.26 3.003-3.146V5.09h2.604v10.843h-2.504c-1.027 1.158-1.978 1.66-3.656 1.66-2.703 0-4.906-2.037-4.906-5.457V5.09" fill="#FFF"/><path d="M54.22 20.243c0 3.724-3.28 5.358-5.533 5.358-2.73 0-3.956-1.03-5.132-2.39l2.203-1.356c.826.804 1.652 1.282 2.778 1.282 1.728 0 3.23-1.056 3.23-3.195v-.653l-.004-7.658 2.457-.002v8.615M5.71 6.6l-5.38.995 7.68 11.562L5.71 6.6M5.554 5.745L4.564.338.174 6.74l5.38-.995M6.404 5.588l5.382-.994L5.414.18l.99 5.408M6.56 6.443L8.86 19 11.94 5.45l-5.38.995" fill="#FFF"/><path d="M8.416 18.986s1.03 4.32 6.966 4.944c5.936.623 10.323-1.85 18.506-2.973 7.958-1.105 9.26 1.042 9.26 1.042" stroke="#FFF" stroke-width="1.34"/></g></svg>