<svg width="89" height="99" viewBox="0 0 89 99" xmlns="http://www.w3.org/2000/svg"><title>avatar-female-default</title><desc>Created with Sketch.</desc><g fill="#EEE1E3" fill-rule="evenodd"><path d="M79.136 42.885c-2.082-25.528-34.362-30.033-34.362-30.033-1.338-1.2-4.313-9.01-8.032-11.563-3.72-2.555-6.248 0-6.248 0l-6.1 9.01c-9.22 1.5-10.114 8.257-10.114 8.257L5.206 22.46c-7.438 2.854-2.082 7.21-2.082 7.21l6.396 8.56-.893 13.964C7.884 63.307.297 82.98.297 82.98c.595 4.954 17.7 10.81 17.7 10.81 5.952 2.704 10.86-2.402 10.86-2.402 16.215 15.316 28.115 2.427 28.115 2.427 1.04-1.026 3.868-2.424 3.868-2.424 11.156 8.714 28.115-8.86 28.115-8.86-5.802-5.857-9.82-39.644-9.82-39.644zM32.726 8.647l4.016 3.304s.595 3.756-5.653 4.357l-1.49-1.05s-.594-5.257 3.124-6.61zm-18.63 23.067l-3.328-4.007c1.288-3.773 6.5-3.245 6.5-3.245l1.064 1.486c-.508 6.315-4.235 5.766-4.235 5.766zm7.718-9.602c-1.384-1.696-1.682-3.756-.668-4.598 1.014-.844 2.96-.152 4.343 1.544 1.382 1.697 1.68 3.757.666 4.6-1.014.842-2.96.15-4.343-1.546zm22.96 67.924S26.33 85.832 22.46 72.918V48.14s6.695 6.758 15.472 4.806c0 0 1.488-2.403 1.636-6.157 0 0 2.826 2.1 2.23 9.46 0 0 13.836-.15 23.802-5.708l.744 22.074s.595 10.06-21.57 17.42zM32.65 60.004c-1.765 0-3.197 1.445-3.197 3.228 0 1.783 1.432 3.228 3.198 3.228 1.768 0 3.2-1.445 3.2-3.228 0-1.783-1.432-3.228-3.2-3.228M55.262 60.004c-1.767 0-3.2 1.445-3.2 3.228 0 1.783 1.433 3.228 3.2 3.228 1.766 0 3.197-1.445 3.197-3.228 0-1.783-1.433-3.228-3.2-3.228M42.274 71.516l-.84.85c.746.753 2.15 1.634 3.77 1.634 1.13 0 2.37-.43 3.56-1.634l-.84-.85c-2.775 2.805-5.533.115-5.65 0"/></g></svg>