<?xml version="1.0" encoding="UTF-8" standalone="no"?>
<svg width="163px" height="26px" viewBox="0 0 163 26" version="1.1" xmlns="http://www.w3.org/2000/svg" xmlns:xlink="http://www.w3.org/1999/xlink" xmlns:sketch="http://www.bohemiancoding.com/sketch/ns">
    <!-- Generator: Sketch 3.0.4 (8054) - http://www.bohemiancoding.com/sketch -->
    <title>Logo</title>
    <desc>Created with Sketch.</desc>
    <defs></defs>
    <g id="Page-1" stroke="none" stroke-width="1" fill="none" fill-rule="evenodd" sketch:type="MSPage">
        <g id="Desktop" sketch:type="MSArtboardGroup" transform="translate(-26.000000, -17.000000)">
            <g id="Above-the-Fold" sketch:type="MSLayerGroup" transform="translate(-30.000000, -2.000000)">
                <g id="Logo" transform="translate(56.000000, 19.000000)" sketch:type="MSShapeGroup">
                    <g id="logo">
                        <path d="M20.7689167,13.65065 C21.6951706,14.65685 23.2223254,15.43685 24.5741905,15.43685 C26.076119,15.43685 26.9777937,14.5808 26.9777937,13.9022 C26.9777937,13.0975 26.3516667,12.6698 25.4001865,12.493 L23.9234841,12.21675 C20.5185952,11.58755 19.5677619,10.48125 19.5677619,8.7451 C19.5677619,6.682 21.2947857,4.77035 24.323869,4.77035 C26.0010873,4.77035 27.4777897,5.27345 29.1304286,6.4558 L27.6530794,8.29205 C26.3768929,7.21045 25.250123,6.9342 24.3989008,6.9342 C23.272131,6.9342 22.1705873,7.48735 22.1705873,8.4682 C22.1705873,9.1975 22.7469087,9.57515 23.7481944,9.7513 L26.3768929,10.2544 C28.5295278,10.6574 29.580619,11.68895 29.580619,13.4992 C29.580619,15.2854 28.1291429,17.6007 24.4487063,17.6007 C22.3963294,17.6007 20.6440794,16.87075 18.9914405,15.4622 L20.7689167,13.65065" id="Fill-1" fill="#FFFFFF"></path>
                        <path d="M31.5088056,12.1914 L29.8063611,12.1914 L29.8063611,9.72595 L31.5088056,9.72595 L31.5088056,1.47485 L34.1122778,1.47485 L34.1122778,9.72595 L35.4395635,9.72595 L38.6187103,5.0973 L41.772631,5.0973 L37.6672302,10.83355 L41.9731468,17.2731 L38.8936111,17.2731 L35.6898849,12.1914 L34.1122778,12.1914 L34.1122778,17.2731 L31.5088056,17.2731 L31.5088056,12.1914" id="Fill-2" fill="#FFFFFF"></path>
                        <path d="M69.1094127,13.48295 C68.4069603,12.39875 67.4283135,11.64215 65.9477302,11.64215 C63.6644365,11.64215 62.0085635,13.40755 62.0085635,15.60065 C62.0085635,17.7944 63.6644365,19.55915 65.9477302,19.55915 C67.3785079,19.55915 68.4069603,18.8279 69.1094127,17.71835 L71.3933532,19.0801 C70.3138016,20.79545 68.25625,22.03045 65.9477302,22.03045 C61.7077897,22.03045 59.2485595,18.8279 59.2485595,15.60065 C59.2485595,12.3734 61.7077897,9.17085 65.9477302,9.17085 C68.5324444,9.17085 70.2135437,10.4065 71.3933532,12.1212 L69.1094127,13.48295" id="Fill-3" fill="#FFFFFF"></path>
                        <path d="M72.9987738,5.86755 L75.6080675,5.86755 L75.6080675,11.037 L75.6585198,11.037 C76.3861984,9.9021 77.7154246,9.17085 79.3719444,9.17085 C81.9314325,9.17085 84.0892421,11.31455 84.0892421,14.3403 L84.0892421,21.7022 L81.4793016,21.7022 L81.4793016,14.9201 C81.4793016,12.70165 80.3260119,11.7936 78.5938135,11.7936 C76.9127143,11.7936 75.6080675,12.8778 75.6080675,14.87005 L75.6080675,21.7022 L72.9987738,21.7022 L72.9987738,5.86755" id="Fill-4" fill="#FFFFFF"></path>
                        <path d="M88.1286667,5.5406 C88.931377,5.5406 89.5840238,6.1958 89.5840238,7.0031 C89.5840238,7.80975 88.931377,8.46495 88.1286667,8.46495 C87.3253095,8.46495 86.6733095,7.80975 86.6733095,7.0031 C86.6733095,6.1958 87.3253095,5.5406 88.1286667,5.5406 L88.1286667,5.5406 Z M86.823373,9.4991 L89.4333135,9.4991 L89.4333135,21.7022 L86.823373,21.7022 L86.823373,9.4991 Z" id="Fill-5" fill="#FFFFFF"></path>
                        <path d="M94.8278373,5.86755 L94.8278373,16.7856 C94.8278373,18.19805 95.1286111,18.70245 95.9067421,19.15615 L97.3116468,19.9628 L96.1577103,22.03045 C93.4733849,20.74475 92.2178968,19.81135 92.2178968,17.26465 L92.2178968,5.86755 L94.8278373,5.86755" id="Fill-6" fill="#FFFFFF"></path>
                        <path d="M107.4985,20.215 L107.448694,20.215 C106.620758,21.32455 105.114948,22.03045 103.459075,22.03045 C99.4694563,22.03045 97.1609365,18.7525 97.1609365,15.60065 C97.1609365,12.60025 99.6453929,9.17085 103.58456,9.17085 C105.391143,9.17085 106.770821,9.9528 107.448694,10.9863 L107.4985,10.9863 L107.4985,5.86755 L110.109087,5.86755 L110.109087,21.7022 L107.4985,21.7022 L107.4985,20.215 L107.4985,20.215 Z M103.785075,19.55915 C105.843274,19.55915 107.599405,17.7944 107.599405,15.60065 C107.599405,13.40755 105.843274,11.64215 103.785075,11.64215 C101.677071,11.64215 99.9215873,13.40755 99.9215873,15.60065 C99.9215873,17.7944 101.677071,19.55915 103.785075,19.55915 L103.785075,19.55915 Z" id="Fill-7" fill="#FFFFFF"></path>
                        <path d="M124.869643,13.48295 C124.166544,12.39875 123.188544,11.64215 121.70796,11.64215 C119.424667,11.64215 117.768147,13.40755 117.768147,15.60065 C117.768147,17.7944 119.424667,19.55915 121.70796,19.55915 C123.138091,19.55915 124.166544,18.8279 124.869643,17.71835 L127.15229,19.0801 C126.073385,20.79545 124.015833,22.03045 121.70796,22.03045 C117.467373,22.03045 115.008143,18.8279 115.008143,15.60065 C115.008143,12.3734 117.467373,9.17085 121.70796,9.17085 C124.292028,9.17085 125.973127,10.4065 127.15229,12.1212 L124.869643,13.48295" id="Fill-8" fill="#FFFFFF"></path>
                        <path d="M138.192952,20.215 L138.1425,20.215 C137.313917,21.32455 135.808754,22.03045 134.152234,22.03045 C130.163262,22.03045 127.854742,18.7525 127.854742,15.60065 C127.854742,12.60025 130.339198,9.17085 134.278365,9.17085 C136.084948,9.17085 137.465274,9.9528 138.1425,10.9863 L138.192952,10.9863 L138.192952,9.4991 L140.802246,9.4991 L140.802246,21.7022 L138.192952,21.7022 L138.192952,20.215 L138.192952,20.215 Z M134.478881,19.55915 C136.536433,19.55915 138.29321,17.7944 138.29321,15.60065 C138.29321,13.40755 136.536433,11.64215 134.478881,11.64215 C132.371524,11.64215 130.615393,13.40755 130.615393,15.60065 C130.615393,17.7944 132.371524,19.55915 134.478881,19.55915 L134.478881,19.55915 Z" id="Fill-9" fill="#FFFFFF"></path>
                        <path d="M143.487218,9.4991 L145.946448,9.4991 L145.946448,10.8355 L145.996254,10.8355 C146.422512,9.8267 147.326127,9.17085 148.379806,9.17085 C148.956774,9.17085 149.45871,9.3223 149.809937,9.54915 L148.881742,12.14655 C148.630774,11.94505 148.154063,11.7936 147.903095,11.7936 C146.949675,11.7936 146.096512,12.52485 146.096512,13.6344 L146.096512,21.7022 L143.487218,21.7022 L143.487218,9.4991" id="Fill-10" fill="#FFFFFF"></path>
                        <path d="M161.954083,19.0554 C160.498726,20.89555 158.491627,22.0051 156.308591,22.03045 C152.068651,22.03045 149.609421,18.8279 149.609421,15.60065 C149.609421,12.3734 152.068651,9.17085 156.308591,9.17085 C158.842853,9.17085 162.607377,11.26385 162.607377,16.02965 L162.607377,16.5087 L152.520135,16.5087 C152.670198,18.3742 154.40175,19.7106 156.23356,19.7106 C157.638464,19.7106 158.842853,19.03005 159.746468,17.81975 L161.954083,19.0554 L161.954083,19.0554 Z M159.545306,14.3403 C158.993563,12.47415 157.613885,11.4907 155.957365,11.4907 C154.301492,11.4907 152.946393,12.52485 152.520135,14.3403 L159.545306,14.3403 L159.545306,14.3403 Z" id="Fill-11" fill="#FFFFFF"></path>
                        <path d="M43.15425,5.09145 L45.7577222,5.09145 L45.7577222,12.2356 C45.7577222,14.27335 47.0093294,15.12875 48.6115159,15.12875 C50.6393135,15.12875 51.615373,13.871 51.615373,11.98405 L51.615373,5.09145 L54.2188452,5.09145 L54.2188452,15.93345 L51.715631,15.93345 C50.689119,17.0911 49.7382857,17.5942 48.0604206,17.5942 C45.3573373,17.5942 43.15425,15.5558 43.15425,12.1355 L43.15425,5.09145" id="Fill-12" fill="#FFFFFF"></path>
                        <path d="M54.2188452,20.24295 C54.2188452,23.9668 50.9394405,25.6009 48.6865476,25.6009 C45.9575913,25.6009 44.7312103,24.57 43.5546349,23.2115 L45.7577222,21.85365 C46.5837183,22.65835 47.4097143,23.1361 48.5364841,23.1361 C50.2635079,23.1361 51.7654365,22.07985 51.7654365,19.94135 L51.7654365,19.2868 L51.7622024,11.6285 L54.2188452,11.6285 L54.2188452,20.24295" id="Fill-13" fill="#FFFFFF"></path>
                        <path d="M5.7101746,6.6001 L0.329880952,7.5946 L8.00899206,19.1568 L5.7101746,6.6001" id="Fill-14" fill="#FFFFFF"></path>
                        <path d="M5.55364286,5.74535 L4.564,0.338 L0.173349206,6.7405 L5.55364286,5.74535" id="Fill-15" fill="#FFFFFF"></path>
                        <path d="M6.40357143,5.58805 L11.7858056,4.59355 L5.41392857,0.1807 L6.40357143,5.58805" id="Fill-16" fill="#FFFFFF"></path>
                        <path d="M6.56075,6.4428 L8.85956746,19.0008 L11.9410437,5.4483 L6.56075,6.4428" id="Fill-17" fill="#FFFFFF"></path>
                        <path d="M8.41649206,18.98585 C8.41649206,18.98585 9.44559127,23.30575 15.3815079,23.92975 C21.3180714,24.5531 25.7054881,22.08115 33.8878294,20.95665 C41.8457222,19.8523 43.1490754,21.99925 43.1490754,21.99925" id="Stroke-18" stroke="#FFFFFF" stroke-width="1.34"></path>
                    </g>
                </g>
            </g>
        </g>
    </g>
</svg>