<svg width="79" height="86" viewBox="0 0 79 86" xmlns="http://www.w3.org/2000/svg"><title>avatar-male-default</title><desc>Created with Sketch.</desc><g fill="#D7E5EC" fill-rule="evenodd"><path d="M57.84 6.54c-3.34-.375-1.3-2.067-1.3-2.067 4.08-.94 1.113-2.633 1.113-2.633C27.787-5.682 16.47 15.38 16.47 15.38c-.184 1.787-3.338.19-5.75.376-2.41.188 7.7 3.01.28 3.385-7.42.38-6.216 2.918-3.433 3.2 2.783.28 3.524 1.693-3.06 4.89C-2.08 30.424.61 45.187 1.444 46.41c.835 1.222 1.206 5.266 2.41 2.727 1.207-2.538 2.97.282 4.268.658 1.3.376.557 2.07.557 2.07-5.38 13.163 6.677 19.18 6.677 19.18 1.113 7.335 14.47 14.48 14.47 14.48h20.59C63.03 84.02 66.927 73.49 68.783 71.42c1.855-2.066 4.638-6.015 4.638-6.015C78.8 55.25 71.195 48.48 71.195 48.48c1.485-1.13 2.04-4.327 2.783-7.398.742-3.072 1.113-2.006 1.113-2.006 2.598 4.513 3.526 0 3.526 0C76.76 14.816 57.84 6.54 57.84 6.54zm7.98 57.08s-1.02 1.41-2.32 1.035c0 0 .186 6.017-4.545 8.274 0 0-3.988 4.794-9.553 5.922h-17.9s-8.35-5.265-11.78-14.292c0 0-5.845.565-5.752-6.676 0 0-.65-4.23 4.638-5.265l.186-5.83s11.965 2.442 20.59-4.233c0 0 2.042 4.137-2.782 7.146 0 0 9.275 3.008 13.82-9.78 0 0 4.638 6.3 14.192 6.583 0 0-1.485 5.736 2.133 6.864 0 0 4.545 6.112-.927 10.25zM52.602 52.995c-1.613 0-2.922 1.326-2.922 2.962 0 1.636 1.31 2.962 2.922 2.962 1.614 0 2.922-1.328 2.922-2.964s-1.308-2.962-2.922-2.962M30.712 52.995c-1.613 0-2.92 1.326-2.92 2.962 0 1.636 1.307 2.962 2.92 2.962 1.614 0 2.922-1.328 2.922-2.964s-1.308-2.962-2.922-2.962M42.43 64.44c-1.53.11-2.943-1.136-2.957-1.15l-.735.847c.067.06 1.62 1.437 3.507 1.437.083 0 .167-.002.25-.008 1.052-.07 1.983-.567 2.766-1.48l-.835-.742c-.58.676-1.25 1.045-1.994 1.095"/></g></svg>